<?xml version="1.0" encoding="UTF-8"?>
<svg data-bbox="8.699 12.02 527.267 456.626" viewBox="0 0 546.667 477.333" xmlns="http://www.w3.org/2000/svg" data-type="ugc">
    <g>
        <path fill="#195F30" d="M403.573 13.02H141.094L9.854 240.333l131.24 227.314h262.479l131.239-227.314L403.573 13.02z"/>
        <path d="M152.987 293.211c0 3.406 0 6.209.177 7.701.106 1.029.32 1.81 1.384 1.951.497.071 1.278.141 1.598.141.212 0 .282.106.282.214 0 .177-.177.282-.567.282-1.951 0-4.187-.106-4.366-.106-.177 0-2.412.106-3.476.106-.391 0-.567-.071-.567-.282 0-.108.071-.214.282-.214.32 0 .746-.071 1.066-.141.708-.141.885-.923 1.028-1.951.177-1.492.177-4.295.177-7.701v-6.246c0-5.535 0-6.531-.071-7.665-.071-1.207-.426-1.81-1.207-1.986a4.599 4.599 0 0 0-1.099-.144c-.141 0-.285-.071-.285-.212 0-.214.179-.285.57-.285 1.17 0 3.406.106 3.582.106.179 0 2.415-.106 3.479-.106.391 0 .567.071.567.285 0 .141-.141.212-.282.212-.249 0-.461.035-.887.106-.958.179-1.243.781-1.313 2.024-.071 1.134-.071 2.13-.071 7.665v6.246z" fill="#FFFFFF"/>
        <path d="M170.048 299.385c.071 2.485.355 3.229 1.205 3.443.57.141 1.278.177 1.563.177.141 0 .247.106.247.249 0 .177-.212.247-.567.247-1.775 0-3.015-.106-3.3-.106-.285 0-1.598.106-3.017.106-.318 0-.497-.035-.497-.247 0-.144.106-.249.249-.249.247 0 .814-.035 1.278-.177.779-.214.885-1.031.885-3.763v-17.282c0-1.205.179-1.525.426-1.525.355 0 .887.603 1.207.923.497.497 5.039 5.324 9.866 10.292 3.088 3.194 6.423 6.778 7.381 7.771l-.32-15.117c-.035-1.953-.212-2.627-1.17-2.805a10.057 10.057 0 0 0-1.527-.141c-.212 0-.247-.177-.247-.285 0-.177.247-.212.603-.212 1.419 0 2.911.071 3.264.071.355 0 1.384-.071 2.662-.071.32 0 .567.035.567.212 0 .108-.141.285-.353.285-.144 0-.391 0-.746.071-1.029.214-1.099.817-1.099 2.627l-.073 17.673c0 1.986-.035 2.165-.247 2.165-.32 0-.638-.249-2.377-1.845-.32-.285-4.827-4.721-8.127-8.162-3.62-3.799-7.134-7.489-8.091-8.553l.355 14.228z" fill="#FFFFFF"/>
        <path d="M202.823 299.385c.071 2.485.355 3.229 1.207 3.443.567.141 1.278.177 1.56.177.144 0 .249.106.249.249 0 .177-.214.247-.567.247-1.775 0-3.017-.106-3.302-.106-.282 0-1.596.106-3.015.106-.32 0-.497-.035-.497-.247 0-.144.106-.249.247-.249.249 0 .817-.035 1.278-.177.781-.214.887-1.031.887-3.763v-17.282c0-1.205.177-1.525.426-1.525.355 0 .887.603 1.207.923.497.497 5.039 5.324 9.864 10.292 3.088 3.194 6.423 6.778 7.383 7.771l-.32-15.117c-.035-1.953-.214-2.627-1.172-2.805a10.025 10.025 0 0 0-1.525-.141c-.214 0-.249-.177-.249-.285 0-.177.249-.212.605-.212 1.419 0 2.909.071 3.264.071s1.384-.071 2.662-.071c.318 0 .567.035.567.212 0 .108-.141.285-.355.285-.141 0-.391 0-.744.071-1.031.214-1.101.817-1.101 2.627l-.071 17.673c0 1.986-.035 2.165-.249 2.165-.318 0-.638-.249-2.377-1.845-.32-.285-4.825-4.721-8.127-8.162-3.62-3.799-7.131-7.489-8.091-8.553l.356 14.228z" fill="#FFFFFF"/>
        <path d="M243.337 280.258c7.025 0 12.349 4.295 12.349 11.32 0 6.743-5.004 12.314-12.528 12.314-8.55 0-12.205-6.423-12.205-11.852-.001-4.863 3.76-11.782 12.384-11.782zm.708 22.391c2.805 0 8.447-1.49 8.447-10.219 0-7.239-4.401-11.036-9.334-11.036-5.215 0-8.976 3.264-8.976 9.828-.001 7.028 4.222 11.427 9.863 11.427z" fill="#FFFFFF"/>
        <path d="M273.629 299.564c1.81-4.046 5.891-14.338 6.566-16.503.141-.461.282-.887.282-1.134 0-.249-.106-.532-.426-.64-.353-.106-.708-.106-1.064-.106-.177 0-.355-.106-.355-.247 0-.179.214-.249.711-.249 1.243 0 2.662.071 3.05.071.179 0 1.527-.071 2.45-.071.32 0 .497.071.497.212 0 .144-.106.285-.355.285-.212 0-.923 0-1.49.355-.426.282-.923.708-1.739 2.768-.355.852-1.88 4.472-3.479 8.162-1.916 4.401-3.3 7.665-4.01 9.155-.852 1.81-1.029 2.271-1.349 2.271-.353 0-.567-.391-1.17-1.845l-7.665-18.489c-.711-1.702-1.137-2.022-2.165-2.271-.497-.106-1.028-.106-1.205-.106-.179 0-.249-.177-.249-.285 0-.177.32-.212.817-.212 1.49 0 3.264.071 3.655.071.32 0 1.704-.071 2.909-.071.567 0 .852.071.852.212 0 .144-.106.285-.32.285-.353 0-.85.035-1.134.141-.32.144-.355.32-.355.534 0 .388.391 1.311.852 2.518l5.889 15.189z" fill="#FFFFFF"/>
        <path d="M296.225 281.286c.388-.993.532-1.17.744-1.17.32 0 .426.426.746 1.099.567 1.278 5.571 13.733 7.487 18.31 1.137 2.697 1.989 3.088 2.662 3.302.461.141.923.177 1.243.177.177 0 .391.071.391.249 0 .177-.355.247-.711.247-.461 0-2.768 0-4.933-.071-.603-.035-1.099-.035-1.099-.212 0-.144.071-.144.212-.214.179-.071.499-.32.285-.817l-2.803-6.919c-.071-.141-.106-.177-.285-.177h-7.204c-.141 0-.247.071-.318.247l-1.775 4.827c-.285.746-.461 1.49-.461 2.022 0 .605.532.817 1.064.817h.285c.247 0 .318.106.318.249 0 .177-.177.247-.461.247-.744 0-2.448-.106-2.803-.106-.318 0-1.88.106-3.158.106-.391 0-.603-.071-.603-.247 0-.144.141-.249.285-.249.212 0 .673-.035.923-.071 1.419-.177 2.022-1.243 2.624-2.768l7.345-18.878zm3.476 12.563c.144 0 .144-.071.106-.212l-3.085-8.27c-.179-.461-.355-.461-.532 0l-2.911 8.27c-.035.141 0 .212.106.212h6.316z" fill="#FFFFFF"/>
        <path d="M322.083 294.736c0 2.909 0 5.288.141 6.529.108.887.249 1.457 1.207 1.598a11.95 11.95 0 0 0 1.419.141c.214 0 .249.141.249.249 0 .141-.144.247-.497.247-1.704 0-3.69-.106-3.869-.106-.141 0-2.306.106-3.229.106-.355 0-.497-.071-.497-.247 0-.108.071-.214.247-.214.285 0 .64-.071.925-.141.638-.141.814-.746.923-1.633.141-1.24.141-3.62.141-6.529v-12.669l-4.507.071c-1.951.035-2.697.249-3.158.958-.355.532-.391.746-.497.958-.071.249-.179.285-.32.285a.235.235 0 0 1-.212-.247c0-.32.638-3.017.673-3.267.071-.177.214-.567.32-.567.212 0 .532.249 1.384.355a25.97 25.97 0 0 0 2.448.141h11.782c1.031 0 1.739-.071 2.236-.141.461-.071.746-.141.887-.141s.141.177.141.353c0 .923-.106 3.088-.106 3.443 0 .247-.141.391-.282.391-.144 0-.214-.106-.249-.532l-.035-.32c-.106-.923-.781-1.598-3.761-1.669l-3.904-.071v12.669z" fill="#FFFFFF"/>
        <path d="M343.684 294.736c0 2.909 0 5.288.144 6.529.106.887.212 1.457 1.134 1.598.461.071 1.137.141 1.419.141.179 0 .249.141.249.249 0 .141-.141.247-.497.247-1.739 0-3.763-.106-3.905-.106-.177 0-2.13.106-3.088.106-.318 0-.497-.071-.497-.247 0-.108.071-.249.249-.249.282 0 .673-.071.958-.141.603-.141.708-.711.817-1.598.141-1.24.177-3.62.177-6.529v-5.324c0-4.684 0-5.535-.071-6.493-.071-1.028-.32-1.49-.993-1.633a5.58 5.58 0 0 0-.958-.106c-.144 0-.249-.141-.249-.247 0-.179.141-.249.497-.249 1.029 0 2.982.071 3.158.071.141 0 2.165-.071 3.123-.071.355 0 .497.071.497.249 0 .106-.141.247-.247.247-.214 0-.426 0-.781.071-.852.179-1.029.605-1.101 1.669-.035.958-.035 1.81-.035 6.493v5.323z" fill="#FFFFFF"/>
        <path d="M365.431 299.564c1.81-4.046 5.891-14.338 6.566-16.503.141-.461.282-.887.282-1.134 0-.249-.106-.532-.426-.64-.353-.106-.708-.106-1.064-.106-.177 0-.355-.106-.355-.247 0-.179.214-.249.711-.249 1.243 0 2.662.071 3.05.071.179 0 1.527-.071 2.45-.071.32 0 .497.071.497.212 0 .144-.106.285-.355.285-.212 0-.923 0-1.49.355-.426.282-.923.708-1.739 2.768-.355.852-1.88 4.472-3.479 8.162-1.916 4.401-3.3 7.665-4.008 9.155-.852 1.81-1.031 2.271-1.349 2.271-.355 0-.57-.391-1.172-1.845l-7.665-18.489c-.708-1.702-1.134-2.022-2.165-2.271-.497-.106-1.029-.106-1.205-.106-.179 0-.249-.177-.249-.285 0-.177.32-.212.817-.212 1.49 0 3.264.071 3.655.071.32 0 1.704-.071 2.909-.071.57 0 .852.071.852.212 0 .144-.106.285-.318.285-.355 0-.852.035-1.137.141-.32.144-.355.32-.355.534 0 .388.391 1.311.852 2.518l5.89 15.189z" fill="#FFFFFF"/>
        <path d="M385.683 289.413c0-4.684 0-5.535-.071-6.493-.071-1.028-.249-1.525-1.278-1.669a10.158 10.158 0 0 0-1.064-.071c-.106 0-.249-.141-.249-.247 0-.179.144-.249.497-.249 1.419 0 3.443.071 3.62.071.214 0 6.743.035 7.454 0 .603-.035 1.17-.141 1.419-.177.141-.035.282-.144.426-.144.106 0 .141.144.141.285 0 .214-.177.567-.247 1.419-.038.285-.108 1.633-.179 1.989-.035.141-.141.318-.282.318-.179 0-.249-.141-.249-.391 0-.212-.035-.708-.177-1.064-.214-.497-.534-.708-2.236-.923-.532-.071-4.152-.106-4.507-.106-.144 0-.179.106-.179.32v8.197c0 .212 0 .318.179.318.391 0 4.507 0 5.215-.071.746-.071 1.207-.106 1.527-.426.212-.212.353-.391.461-.391.106 0 .177.071.177.249 0 .177-.177.673-.249 1.669a29.148 29.148 0 0 0-.141 1.951c0 .247-.071.567-.282.567-.144 0-.214-.106-.214-.285 0-.282 0-.603-.141-.993-.108-.426-.391-.779-1.598-.923-.852-.106-4.187-.141-4.719-.141-.179 0-.214.106-.214.212v2.521c0 1.028-.035 4.542 0 5.145.073 2.024.64 2.415 3.728 2.415.814 0 2.306 0 3.121-.32.817-.355 1.243-.887 1.422-2.095.071-.355.141-.461.318-.461.179 0 .214.249.214.461 0 .214-.249 2.271-.426 2.911-.214.779-.532.779-1.739.779-2.342 0-4.152-.071-5.43-.106-1.313-.071-2.13-.071-2.591-.071-.071 0-.673 0-1.349.035-.603.035-1.313.071-1.81.071-.318 0-.497-.071-.497-.247 0-.108.071-.249.249-.249.282 0 .673-.106.958-.141.602-.106.673-.711.817-1.598.177-1.24.177-3.62.177-6.529v-5.322z" fill="#FFFFFF"/>
        <path d="M70.957 316.635c0-5.535 0-6.531-.071-7.665-.071-1.207-.355-1.775-1.525-2.024-.285-.071-.887-.106-1.207-.106-.141 0-.285-.071-.285-.212 0-.214.179-.285.57-.285 1.596 0 3.726.106 4.008.106.781 0 2.841-.106 4.472-.106 4.436 0 6.034 1.49 6.602 2.024.781.744 1.775 2.342 1.775 4.222 0 5.039-3.69 8.447-8.729 8.447-.179 0-.57 0-.746-.038-.179 0-.391-.071-.391-.247 0-.285.212-.32.958-.32 3.443 0 6.14-2.518 6.14-5.785 0-1.17-.108-3.547-1.989-5.465-1.88-1.916-4.046-1.772-4.86-1.772-.605 0-1.207.071-1.527.212-.212.071-.282.32-.282.673v14.587c0 3.406 0 6.209.177 7.701.106 1.029.32 1.81 1.384 1.951.497.071 1.278.141 1.598.141.212 0 .282.106.282.214 0 .177-.177.282-.567.282-1.951 0-4.187-.106-4.366-.106-.106 0-2.342.106-3.406.106-.391 0-.567-.071-.567-.282 0-.108.071-.214.282-.214.32 0 .746-.071 1.066-.141.708-.141.885-.923 1.028-1.951.177-1.492.177-4.295.177-7.701v-6.246z" fill="#FFFFFF"/>
        <path d="M96.851 319.082c0-4.684 0-5.535-.071-6.493-.071-1.029-.247-1.525-1.278-1.669a10.121 10.121 0 0 0-1.064-.071c-.106 0-.247-.141-.247-.247 0-.179.141-.249.497-.249 1.419 0 3.511.071 3.69.071.318 0 2.944-.071 3.902-.071 1.989 0 4.189.177 5.82 1.313.781.567 2.165 2.022 2.165 4.116 0 2.236-.923 4.401-3.834 6.884 2.556 3.194 4.721 5.926 6.531 7.807 1.669 1.704 2.697 1.989 3.476 2.095.605.106.925.106 1.101.106s.285.141.285.249c0 .177-.179.247-.746.247h-1.951c-1.775 0-2.556-.177-3.337-.603-1.349-.711-2.483-2.165-4.258-4.436-1.313-1.631-2.697-3.584-3.373-4.401-.141-.141-.212-.177-.424-.177l-3.975-.071c-.144 0-.214.071-.214.247v.711c0 2.909 0 5.253.144 6.493.106.887.282 1.457 1.24 1.598.426.071 1.101.141 1.384.141.214 0 .249.141.249.249 0 .141-.141.247-.497.247-1.704 0-3.69-.106-3.834-.106-.035 0-2.128.106-3.085.106-.32 0-.497-.071-.497-.247 0-.108.071-.249.247-.249.285 0 .675-.071.958-.141.605-.141.675-.711.817-1.598.177-1.24.177-3.62.177-6.529v-5.322zm2.697 2.556c0 .177.071.282.214.391.461.247 2.057.461 3.441.461.746 0 1.598-.035 2.344-.532 1.064-.711 1.88-2.309 1.88-4.615 0-3.761-2.059-5.926-5.394-5.926-.923 0-1.916.108-2.236.179-.141.071-.249.177-.249.355v9.687z" fill="#FFFFFF"/>
        <path d="M127.466 324.406c0 2.909 0 5.288.141 6.529.108.887.214 1.457 1.137 1.598.461.071 1.134.141 1.419.141.177 0 .249.141.249.249 0 .141-.144.247-.497.247-1.739 0-3.763-.106-3.904-.106-.177 0-2.13.106-3.088.106-.32 0-.497-.071-.497-.247 0-.108.071-.249.249-.249.282 0 .673-.071.958-.141.603-.141.708-.711.814-1.598.144-1.24.179-3.62.179-6.529v-5.324c0-4.684 0-5.535-.071-6.493-.071-1.029-.32-1.49-.993-1.633a5.58 5.58 0 0 0-.96-.106c-.141 0-.247-.141-.247-.247 0-.179.141-.249.497-.249 1.028 0 2.982.071 3.158.071.141 0 2.165-.071 3.123-.071.355 0 .497.071.497.249 0 .106-.141.247-.249.247-.212 0-.426 0-.779.071-.852.179-1.031.605-1.101 1.669-.035.958-.035 1.81-.035 6.493v5.323z" fill="#FFFFFF"/>
        <path d="M142.966 329.054c.071 2.485.355 3.229 1.207 3.443.567.141 1.278.177 1.56.177.144 0 .249.106.249.249 0 .177-.214.247-.567.247-1.775 0-3.017-.106-3.302-.106-.282 0-1.596.106-3.015.106-.32 0-.497-.035-.497-.247 0-.144.106-.249.247-.249.249 0 .817-.035 1.278-.177.781-.214.887-1.031.887-3.763v-17.282c0-1.205.177-1.525.426-1.525.355 0 .887.603 1.207.923.497.497 5.039 5.324 9.864 10.292 3.088 3.194 6.423 6.778 7.383 7.771l-.32-15.117c-.035-1.953-.214-2.627-1.172-2.805a10.025 10.025 0 0 0-1.525-.141c-.214 0-.249-.177-.249-.285 0-.177.249-.212.605-.212 1.419 0 2.909.071 3.264.071s1.384-.071 2.662-.071c.318 0 .567.035.567.212 0 .108-.141.285-.355.285-.141 0-.391 0-.744.071-1.031.214-1.101.817-1.101 2.627l-.071 17.673c0 1.986-.035 2.165-.249 2.165-.318 0-.638-.249-2.377-1.845-.32-.285-4.825-4.721-8.127-8.162-3.62-3.799-7.131-7.489-8.091-8.553l.356 14.228z" fill="#FFFFFF"/>
        <path d="M181.952 324.406c0 2.909 0 5.288.141 6.529.106.887.249 1.457 1.207 1.598.426.071 1.134.141 1.419.141.212 0 .249.141.249.249 0 .141-.144.247-.499.247-1.702 0-3.69-.106-3.867-.106-.141 0-2.306.106-3.229.106-.355 0-.497-.071-.497-.247 0-.108.071-.214.247-.214.285 0 .64-.071.923-.141.64-.141.817-.746.923-1.633.144-1.24.144-3.62.144-6.529v-12.669l-4.507.071c-1.953.035-2.697.249-3.158.958-.355.532-.391.746-.497.958-.073.249-.179.285-.32.285a.236.236 0 0 1-.214-.247c0-.32.64-3.017.675-3.267.071-.177.212-.567.32-.567.212 0 .532.249 1.384.355.887.106 2.092.141 2.448.141h11.782c1.029 0 1.739-.071 2.236-.141.461-.071.746-.141.887-.141.141 0 .141.177.141.353 0 .923-.106 3.088-.106 3.443 0 .247-.141.391-.285.391-.141 0-.212-.106-.247-.532l-.035-.32c-.106-.923-.781-1.598-3.763-1.669l-3.902-.071v12.669z" fill="#FFFFFF"/>
        <path d="M200.714 319.082c0-4.684 0-5.535-.071-6.493-.071-1.029-.249-1.525-1.278-1.669a10.195 10.195 0 0 0-1.064-.071c-.108 0-.249-.141-.249-.247 0-.179.141-.249.497-.249 1.419 0 3.443.071 3.62.071.214 0 6.743.035 7.451 0 .605-.035 1.172-.141 1.422-.177.141-.035.282-.144.426-.144.106 0 .141.144.141.285 0 .214-.179.567-.249 1.419-.035.285-.106 1.633-.177 1.989-.035.141-.141.318-.285.318-.177 0-.247-.141-.247-.391 0-.212-.035-.708-.179-1.064-.212-.497-.532-.708-2.236-.923-.532-.071-4.152-.106-4.505-.106-.144 0-.179.106-.179.32v8.197c0 .212 0 .318.179.318.388 0 4.505 0 5.215-.071.746-.071 1.207-.106 1.525-.426.214-.212.355-.391.461-.391.108 0 .179.071.179.249 0 .177-.179.673-.249 1.669a29.102 29.102 0 0 0-.141 1.951c0 .247-.071.567-.285.567-.141 0-.212-.106-.212-.285 0-.282 0-.603-.144-.993-.106-.426-.388-.779-1.596-.923-.852-.106-4.187-.141-4.719-.141-.179 0-.214.106-.214.212v2.521c0 1.029-.035 4.542 0 5.145.071 2.024.64 2.415 3.726 2.415.817 0 2.306 0 3.123-.32.817-.355 1.243-.887 1.419-2.095.071-.355.144-.461.32-.461s.212.249.212.461c0 .214-.247 2.271-.424 2.911-.214.779-.534.779-1.739.779-2.342 0-4.152-.071-5.43-.106-1.313-.071-2.13-.071-2.591-.071-.071 0-.673 0-1.349.035-.602.035-1.313.071-1.81.071-.32 0-.497-.071-.497-.247 0-.108.071-.249.249-.249.282 0 .673-.106.958-.141.602-.106.673-.711.814-1.598.179-1.24.179-3.62.179-6.529v-5.322z" fill="#FFFFFF"/>
        <path d="M224.195 319.082c0-4.684 0-5.535-.071-6.493-.071-1.029-.247-1.525-1.278-1.669a10.121 10.121 0 0 0-1.064-.071c-.106 0-.247-.141-.247-.247 0-.179.141-.249.497-.249 1.419 0 3.511.071 3.69.071.318 0 2.944-.071 3.902-.071 1.989 0 4.189.177 5.82 1.313.781.567 2.165 2.022 2.165 4.116 0 2.236-.923 4.401-3.834 6.884 2.556 3.194 4.721 5.926 6.531 7.807 1.669 1.704 2.697 1.989 3.476 2.095.605.106.925.106 1.101.106s.285.141.285.249c0 .177-.179.247-.746.247h-1.951c-1.775 0-2.556-.177-3.337-.603-1.349-.711-2.483-2.165-4.258-4.436-1.313-1.631-2.697-3.584-3.373-4.401-.141-.141-.212-.177-.424-.177l-3.975-.071c-.144 0-.214.071-.214.247v.711c0 2.909 0 5.253.144 6.493.106.887.282 1.457 1.24 1.598.426.071 1.101.141 1.384.141.214 0 .249.141.249.249 0 .141-.141.247-.497.247-1.704 0-3.69-.106-3.834-.106-.035 0-2.128.106-3.085.106-.32 0-.497-.071-.497-.247 0-.108.071-.249.247-.249.285 0 .675-.071.958-.141.605-.141.675-.711.817-1.598.177-1.24.177-3.62.177-6.529v-5.322zm2.698 2.556c0 .177.071.282.214.391.461.247 2.057.461 3.441.461.746 0 1.598-.035 2.344-.532 1.064-.711 1.88-2.309 1.88-4.615 0-3.761-2.059-5.926-5.394-5.926-.923 0-1.916.108-2.236.179-.141.071-.249.177-.249.355v9.687z" fill="#FFFFFF"/>
        <path d="M268.501 329.836c-3.441-3.088-4.293-7.134-4.293-10.504 0-2.377.817-6.531 3.975-9.689 2.128-2.128 5.357-3.796 10.824-3.796 1.419 0 3.406.106 5.145.426 1.349.249 2.483.461 3.62.532.391.035.461.179.461.391 0 .285-.106.711-.179 1.986-.071 1.172-.071 3.123-.106 3.655-.035.534-.106.746-.318.746-.249 0-.285-.247-.285-.746 0-1.384-.567-2.838-1.49-3.617-1.243-1.066-3.975-2.024-7.098-2.024-4.721 0-6.919 1.384-8.162 2.591-2.591 2.483-3.194 5.641-3.194 9.261 0 6.778 5.215 12.989 12.81 12.989 2.662 0 4.756-.32 6.176-1.775.744-.781 1.205-2.342 1.313-2.982.071-.391.141-.532.353-.532.179 0 .249.249.249.532 0 .249-.426 3.337-.781 4.542-.212.675-.282.746-.923 1.031-1.419.567-4.116.814-6.387.814-5.323 0-8.907-1.313-11.71-3.831z" fill="#FFFFFF"/>
        <path d="M308.767 309.927c7.025 0 12.349 4.295 12.349 11.32 0 6.743-5.004 12.314-12.528 12.314-8.553 0-12.208-6.423-12.208-11.852 0-4.862 3.764-11.782 12.387-11.782zm.709 22.392c2.803 0 8.447-1.49 8.447-10.219 0-7.239-4.401-11.036-9.334-11.036-5.215 0-8.979 3.264-8.979 9.828 0 7.028 4.224 11.427 9.866 11.427z" fill="#FFFFFF"/>
        <path d="M332.884 329.054c.071 2.485.355 3.229 1.207 3.443.567.141 1.276.177 1.56.177.141 0 .249.106.249.249 0 .177-.214.247-.57.247-1.775 0-3.015-.106-3.3-.106-.282 0-1.596.106-3.017.106-.318 0-.497-.035-.497-.247 0-.144.108-.249.249-.249.247 0 .817-.035 1.278-.177.779-.214.887-1.031.887-3.763v-17.282c0-1.205.177-1.525.426-1.525.353 0 .887.603 1.205.923.497.497 5.039 5.324 9.866 10.292 3.088 3.194 6.423 6.778 7.381 7.771l-.318-15.117c-.038-1.953-.214-2.627-1.172-2.805a10.025 10.025 0 0 0-1.525-.141c-.214 0-.249-.177-.249-.285 0-.177.249-.212.603-.212 1.422 0 2.911.071 3.267.071.353 0 1.384-.071 2.659-.071.32 0 .57.035.57.212 0 .108-.144.285-.355.285-.141 0-.391 0-.746.071-1.028.214-1.099.817-1.099 2.627l-.071 17.673c0 1.986-.035 2.165-.249 2.165-.32 0-.638-.249-2.377-1.845-.32-.285-4.827-4.721-8.127-8.162-3.62-3.799-7.134-7.489-8.091-8.553l.356 14.228z" fill="#FFFFFF"/>
        <path d="M364.809 330.332c-3.053-2.627-3.799-6.067-3.799-8.943 0-2.022.746-5.535 3.514-8.233 1.88-1.81 4.719-3.229 9.511-3.229 1.243 0 3.017.106 4.542.355 1.172.212 2.165.426 3.194.461.32 0 .391.141.391.32 0 .247-.071.603-.141 1.702-.038.996-.038 2.662-.073 3.088-.035.461-.177.64-.353.64-.214 0-.249-.214-.249-.64 0-1.17-.497-2.377-1.313-3.017-1.099-.923-3.37-1.666-6.138-1.666-4.01 0-5.926 1.064-7.028 2.092-2.306 2.13-2.803 4.827-2.803 7.88 0 5.783 4.578 10.93 11.25 10.93 2.342 0 3.902-.179 5.145-1.419.675-.675 1.101-1.953 1.207-2.521.071-.32.106-.426.318-.426.144 0 .285.214.285.426 0 .214-.426 2.838-.746 3.869-.177.567-.247.673-.779.887-1.278.497-3.62.673-5.644.673-4.685 0-7.843-1.099-10.291-3.229z" fill="#FFFFFF"/>
        <path d="M393.609 319.082c0-4.684 0-5.535-.071-6.493-.071-1.029-.249-1.525-1.278-1.669a10.158 10.158 0 0 0-1.064-.071c-.106 0-.249-.141-.249-.247 0-.179.144-.249.497-.249 1.419 0 3.443.071 3.62.071.214 0 6.743.035 7.454 0 .603-.035 1.17-.141 1.419-.177.141-.035.282-.144.426-.144.106 0 .141.144.141.285 0 .214-.177.567-.247 1.419-.038.285-.108 1.633-.179 1.989-.035.141-.141.318-.282.318-.179 0-.249-.141-.249-.391 0-.212-.035-.708-.177-1.064-.214-.497-.534-.708-2.236-.923-.534-.071-4.152-.106-4.507-.106-.144 0-.179.106-.179.32v8.197c0 .212 0 .318.179.318.391 0 4.507 0 5.215-.071.746-.071 1.207-.106 1.527-.426.212-.212.353-.391.461-.391.106 0 .177.071.177.249 0 .177-.177.673-.249 1.669a29.102 29.102 0 0 0-.141 1.951c0 .247-.071.567-.282.567-.144 0-.214-.106-.214-.285 0-.282 0-.603-.141-.993-.106-.426-.391-.779-1.598-.923-.852-.106-4.187-.141-4.719-.141-.179 0-.214.106-.214.212v2.521c0 1.029-.035 4.542 0 5.145.073 2.024.64 2.415 3.728 2.415.814 0 2.306 0 3.121-.32.817-.355 1.243-.887 1.422-2.095.071-.355.141-.461.318-.461.179 0 .214.249.214.461 0 .214-.249 2.271-.426 2.911-.214.779-.532.779-1.739.779-2.342 0-4.152-.071-5.43-.106-1.313-.071-2.13-.071-2.591-.071-.071 0-.673 0-1.349.035-.603.035-1.313.071-1.81.071-.318 0-.497-.071-.497-.247 0-.108.071-.249.249-.249.282 0 .673-.106.958-.141.603-.106.673-.711.817-1.598.177-1.24.177-3.62.177-6.529v-5.322z" fill="#FFFFFF"/>
        <path d="M417.093 319.082c0-4.684 0-5.535-.071-6.493-.071-1.029-.249-1.525-1.278-1.669a10.158 10.158 0 0 0-1.064-.071c-.106 0-.249-.141-.249-.247 0-.179.144-.249.497-.249 1.419 0 3.373.071 3.62.071.675 0 3.017-.071 4.436-.071 4.01 0 5.43 1.243 5.961 1.704.711.638 1.563 1.986 1.563 3.62 0 4.328-3.267 7.204-8.056 7.204-.177 0-.711 0-.887-.035-.141 0-.32-.144-.32-.285 0-.249.179-.32.817-.32 3.37 0 5.785-2.13 5.785-4.862 0-.993-.106-2.944-1.775-4.578-1.633-1.631-3.514-1.454-4.222-1.454-.534 0-1.422.141-1.739.214-.179.035-.249.247-.249.567v12.278c0 2.909 0 5.288.144 6.529.106.887.282 1.457 1.24 1.598.426.071 1.101.141 1.384.141.179 0 .249.141.249.249 0 .141-.141.247-.497.247-1.704 0-3.763-.106-3.904-.106-.106 0-2.13.106-3.088.106-.318 0-.497-.071-.497-.247 0-.108.071-.249.249-.249.282 0 .673-.071.958-.141.603-.141.673-.711.817-1.598.177-1.24.177-3.62.177-6.529v-5.324z" fill="#FFFFFF"/>
        <path d="M448.63 324.406c0 2.909 0 5.288.141 6.529.108.887.249 1.457 1.207 1.598a11.95 11.95 0 0 0 1.419.141c.214 0 .249.141.249.249 0 .141-.144.247-.497.247-1.704 0-3.69-.106-3.869-.106-.141 0-2.306.106-3.229.106-.355 0-.497-.071-.497-.247 0-.108.071-.214.247-.214.285 0 .64-.071.925-.141.638-.141.814-.746.923-1.633.141-1.24.141-3.62.141-6.529v-12.669l-4.507.071c-1.951.035-2.697.249-3.158.958-.355.532-.391.746-.497.958-.071.249-.179.285-.32.285a.235.235 0 0 1-.212-.247c0-.32.638-3.017.673-3.267.071-.177.214-.567.32-.567.212 0 .532.249 1.384.355a25.97 25.97 0 0 0 2.448.141h11.782c1.031 0 1.739-.071 2.236-.141.461-.071.746-.141.887-.141s.141.177.141.353c0 .923-.106 3.088-.106 3.443 0 .247-.141.391-.282.391-.144 0-.214-.106-.249-.532l-.035-.32c-.106-.923-.781-1.598-3.761-1.669l-3.905-.071v12.669z" fill="#FFFFFF"/>
        <path d="M464.375 332.745c-.426-.212-.461-.318-.461-1.134 0-1.49.144-2.697.179-3.194 0-.32.071-.497.247-.497.179 0 .285.106.285.353 0 .249 0 .675.106 1.101.497 2.201 2.838 2.98 4.933 2.98 3.088 0 4.684-1.737 4.684-4.008 0-2.165-1.17-3.194-3.937-5.253l-1.422-1.064c-3.37-2.521-4.469-4.366-4.469-6.46 0-3.547 2.803-5.677 6.919-5.677 1.243 0 2.483.177 3.229.355.603.141.852.141 1.099.141.249 0 .32.035.32.214 0 .141-.141 1.134-.141 3.194 0 .461-.035.673-.249.673-.212 0-.247-.141-.282-.391-.035-.355-.285-1.17-.461-1.49-.214-.355-1.243-1.49-4.046-1.49-2.271 0-4.152 1.134-4.152 3.264 0 1.916.958 3.015 4.043 5.109l.887.603c3.799 2.591 5.112 4.686 5.112 7.275 0 1.775-.675 3.693-2.911 5.147-1.313.852-3.264 1.064-4.968 1.064-1.456.001-3.266-.21-4.544-.815z" fill="#FFFFFF"/>
        <path stroke-miterlimit="10" stroke-linejoin="round" stroke-linecap="round" stroke="#FFFFFF" fill="none" d="m234.942 240.333-18.701 32.384h-37.403l-18.69-32.384 18.69-32.395h37.403l18.701 32.395z"/>
        <path stroke-miterlimit="10" stroke-linejoin="round" stroke-linecap="round" stroke="#FFFFFF" fill="none" d="m309.724 240.333-18.689 32.384h-37.403l-18.69-32.384 18.69-32.395h37.403l18.689 32.395z"/>
        <path stroke-miterlimit="10" stroke-linejoin="round" stroke-linecap="round" stroke="#FFFFFF" fill="none" d="m384.518 240.333-18.689 32.384h-37.403l-18.702-32.384 18.702-32.395h37.403l18.689 32.395z"/>
        <path stroke-miterlimit="10" stroke-linejoin="round" stroke-linecap="round" stroke="#FFFFFF" fill="none" d="m459.312 240.333-18.701 32.384H403.22l-18.702-32.384 18.702-32.395h37.391l18.701 32.395z"/>
        <path stroke-miterlimit="10" stroke-linejoin="round" stroke-linecap="round" stroke="#FFFFFF" fill="none" d="m534.112 240.333-18.702 32.384h-37.391l-18.701-32.384 18.701-32.395h37.391l18.702 32.395z"/>
        <path stroke-miterlimit="10" stroke-linejoin="round" stroke-linecap="round" stroke="#FFFFFF" fill="none" d="m160.148 240.333-18.701 32.384h-37.391l-18.701-32.384 18.701-32.395h37.391l18.701 32.395z"/>
        <path stroke-miterlimit="10" stroke-linejoin="round" stroke-linecap="round" stroke="#FFFFFF" fill="none" d="m85.349 240.333-18.702 32.384H29.256l-18.701-32.384 18.701-32.395h37.391l18.702 32.395z"/>
        <path stroke-miterlimit="10" stroke-linejoin="round" stroke-linecap="round" stroke="#FFFFFF" fill="none" d="m234.942 110.787-18.701 32.384h-37.403l-18.69-32.384 18.69-32.383h37.403l18.701 32.383z"/>
        <path stroke-miterlimit="10" stroke-linejoin="round" stroke-linecap="round" stroke="#FFFFFF" fill="none" d="m309.724 110.787-18.689 32.384h-37.403l-18.69-32.384 18.69-32.383h37.403l18.689 32.383z"/>
        <path stroke-miterlimit="10" stroke-linejoin="round" stroke-linecap="round" stroke="#FFFFFF" fill="none" d="m384.518 110.787-18.689 32.384h-37.403l-18.702-32.384 18.702-32.383h37.403l18.689 32.383z"/>
        <path stroke-miterlimit="10" stroke-linejoin="round" stroke-linecap="round" stroke="#FFFFFF" fill="none" d="m197.545 46.02-18.701 32.384h-37.403L122.752 46.02l18.689-32.384h37.403l18.701 32.384z"/>
        <path stroke-miterlimit="10" stroke-linejoin="round" stroke-linecap="round" stroke="#FFFFFF" fill="none" d="m272.339 46.02-18.701 32.384h-37.403l-18.69-32.384 18.69-32.384h37.403l18.701 32.384z"/>
        <path stroke-miterlimit="10" stroke-linejoin="round" stroke-linecap="round" stroke="#FFFFFF" fill="none" d="m347.121 46.02-18.689 32.384h-37.403L272.327 46.02l18.702-32.384h37.403l18.689 32.384z"/>
        <path stroke-miterlimit="10" stroke-linejoin="round" stroke-linecap="round" stroke="#FFFFFF" fill="none" d="m421.915 46.02-18.69 32.384h-37.402L347.121 46.02l18.702-32.384h37.402l18.69 32.384z"/>
        <path stroke-miterlimit="10" stroke-linejoin="round" stroke-linecap="round" stroke="#FFFFFF" fill="none" d="m197.545 434.647-18.701 32.383h-37.403l-18.689-32.383 18.689-32.384h37.403l18.701 32.384z"/>
        <path stroke-miterlimit="10" stroke-linejoin="round" stroke-linecap="round" stroke="#FFFFFF" fill="none" d="m272.339 434.647-18.701 32.383h-37.403l-18.69-32.383 18.69-32.384h37.403l18.701 32.384z"/>
        <path stroke-miterlimit="10" stroke-linejoin="round" stroke-linecap="round" stroke="#FFFFFF" fill="none" d="m347.121 434.647-18.689 32.383h-37.403l-18.702-32.383 18.702-32.384h37.403l18.689 32.384z"/>
        <path stroke-miterlimit="10" stroke-linejoin="round" stroke-linecap="round" stroke="#FFFFFF" fill="none" d="m421.915 434.647-18.69 32.383h-37.402l-18.702-32.383 18.702-32.384h37.402l18.69 32.384z"/>
        <path stroke-miterlimit="10" stroke-linejoin="round" stroke-linecap="round" stroke="#FFFFFF" fill="none" d="m459.312 110.787-18.701 32.384H403.22l-18.702-32.384 18.702-32.383h37.391l18.701 32.383z"/>
        <path stroke-miterlimit="10" stroke-linejoin="round" stroke-linecap="round" stroke="#FFFFFF" fill="none" d="m160.148 110.787-18.701 32.384h-37.391l-18.701-32.384 18.701-32.383h37.391l18.701 32.383z"/>
        <path stroke-miterlimit="10" stroke-linejoin="round" stroke-linecap="round" stroke="#FFFFFF" fill="none" d="m234.942 369.868-18.701 32.395h-37.403l-18.69-32.395 18.69-32.384h37.403l18.701 32.384z"/>
        <path stroke-miterlimit="10" stroke-linejoin="round" stroke-linecap="round" stroke="#FFFFFF" fill="none" d="m309.724 369.868-18.689 32.395h-37.403l-18.69-32.395 18.69-32.384h37.403l18.689 32.384z"/>
        <path stroke-miterlimit="10" stroke-linejoin="round" stroke-linecap="round" stroke="#FFFFFF" fill="none" d="m384.518 369.868-18.689 32.395h-37.403l-18.702-32.395 18.702-32.384h37.403l18.689 32.384z"/>
        <path stroke-miterlimit="10" stroke-linejoin="round" stroke-linecap="round" stroke="#FFFFFF" fill="none" d="m459.312 369.868-18.701 32.395H403.22l-18.702-32.395 18.702-32.384h37.391l18.701 32.384z"/>
        <path stroke-miterlimit="10" stroke-linejoin="round" stroke-linecap="round" stroke="#FFFFFF" fill="none" d="m160.148 369.868-18.701 32.395h-37.391l-18.701-32.395 18.701-32.384h37.391l18.701 32.384z"/>
        <path stroke-miterlimit="10" stroke-linejoin="round" stroke-linecap="round" stroke="#FFFFFF" fill="none" d="m496.715 305.101-18.702 32.383H66.653l-18.701-32.383 18.701-32.384h411.36l18.702 32.384z"/>
        <path stroke-miterlimit="10" stroke-linejoin="round" stroke-linecap="round" stroke="#FFFFFF" fill="none" d="m496.715 175.554-18.702 32.384H66.653l-18.701-32.384 18.701-32.383h411.36l18.702 32.383z"/>
        <path d="m403.573 13.02 131.239 227.313-131.239 227.314H141.094L9.854 240.333 141.094 13.02h262.479m.577-1H140.517l-.289.5L8.988 239.833l-.289.5.289.5 131.239 227.313.289.5h263.633l.289-.5 131.239-227.313.289-.5-.289-.5L404.439 12.52l-.289-.5z"/>
        <path d="M71.985 169.239c0-10.527 0-12.417-.134-14.575-.135-2.295-.675-3.375-2.902-3.846-.54-.137-1.687-.205-2.295-.205-.269 0-.54-.134-.54-.405 0-.405.338-.539 1.08-.539 3.036 0 7.085.202 7.625.202 1.484 0 5.398-.202 8.502-.202 8.435 0 11.471 2.834 12.551 3.846 1.484 1.417 3.374 4.455 3.374 8.03 0 9.584-7.018 16.06-16.601 16.06-.337 0-1.079 0-1.417-.066-.337 0-.741-.137-.741-.473 0-.541.405-.607 1.822-.607 6.545 0 11.673-4.792 11.673-11 0-2.226-.202-6.748-3.779-10.391-3.576-3.643-7.693-3.375-9.245-3.375-1.147 0-2.295.137-2.902.405-.405.137-.54.607-.54 1.283v27.734c0 6.479 0 11.81.338 14.644.202 1.956.607 3.441 2.632 3.712.944.134 2.429.271 3.036.271.405 0 .54.202.54.405 0 .337-.338.539-1.08.539-3.712 0-7.962-.202-8.3-.202-.202 0-4.454.202-6.478.202-.743 0-1.08-.134-1.08-.539 0-.202.135-.405.54-.405.607 0 1.417-.137 2.024-.271 1.35-.271 1.687-1.756 1.957-3.712.338-2.834.338-8.164.338-14.644v-11.876z" fill="#FFFFFF"/>
        <path d="M115.442 173.895c0-8.906 0-10.527-.134-12.349-.135-1.956-.473-2.902-2.43-3.17a18.94 18.94 0 0 0-2.024-.137c-.202 0-.473-.268-.473-.471 0-.339.271-.473.945-.473 2.699 0 6.68.134 7.018.134.607 0 5.601-.134 7.423-.134 3.779 0 7.962.337 11.066 2.497 1.485 1.08 4.116 3.846 4.116 7.828 0 4.25-1.755 8.367-7.288 13.09 4.859 6.074 8.975 11.269 12.416 14.846 3.171 3.238 5.128 3.78 6.613 3.982 1.147.202 1.755.202 2.092.202.337 0 .539.268.539.471 0 .339-.337.473-1.417.473h-3.712c-3.374 0-4.858-.337-6.343-1.146-2.564-1.351-4.724-4.116-8.097-8.435-2.497-3.104-5.128-6.816-6.411-8.369-.269-.268-.405-.337-.81-.337l-7.558-.134c-.269 0-.405.134-.405.471v1.351c0 5.533 0 9.986.271 12.349.202 1.685.54 2.765 2.362 3.036.81.134 2.091.271 2.631.271.405 0 .473.268.473.471 0 .271-.271.473-.945.473-3.24 0-7.018-.202-7.288-.202-.068 0-4.049.202-5.871.202-.607 0-.945-.134-.945-.473 0-.202.135-.471.472-.471.54 0 1.283-.137 1.823-.271 1.146-.271 1.281-1.351 1.552-3.036.337-2.363.337-6.884.337-12.417v-10.122zm5.128 4.86c0 .337.135.539.405.741.878.473 3.914.878 6.546.878 1.417 0 3.036-.068 4.453-1.012 2.025-1.351 3.577-4.387 3.577-8.774 0-7.152-3.914-11.269-10.258-11.269-1.753 0-3.643.202-4.25.339-.271.134-.473.337-.473.673v18.424z" fill="#FFFFFF"/>
        <path d="M167.875 184.017c0 5.533 0 10.054.269 12.417.202 1.685.405 2.765 2.159 3.036.878.134 2.159.271 2.699.271.338 0 .472.268.472.471 0 .271-.269.473-.945.473-3.306 0-7.152-.202-7.422-.202-.338 0-4.049.202-5.871.202-.607 0-.945-.134-.945-.473 0-.202.135-.471.472-.471.54 0 1.283-.137 1.823-.271 1.147-.271 1.35-1.351 1.552-3.036.269-2.363.337-6.884.337-12.417v-10.123c0-8.906 0-10.527-.134-12.349-.135-1.956-.607-2.834-1.89-3.104a10.694 10.694 0 0 0-1.822-.202c-.271 0-.473-.268-.473-.471 0-.339.271-.473.945-.473 1.957 0 5.668.134 6.006.134.269 0 4.116-.134 5.938-.134.674 0 .945.134.945.473 0 .202-.271.471-.473.471-.405 0-.81 0-1.484.137-1.619.337-1.957 1.146-2.092 3.17-.067 1.822-.067 3.443-.067 12.349v10.122z" fill="#FFFFFF"/>
        <path d="M191.561 192.857c.135 4.724.674 6.14 2.295 6.545 1.079.271 2.429.339 2.969.339a.46.46 0 0 1 .472.471c0 .339-.405.473-1.079.473-3.374 0-5.737-.202-6.276-.202-.54 0-3.037.202-5.736.202-.608 0-.945-.068-.945-.473a.46.46 0 0 1 .472-.471c.473 0 1.552-.068 2.429-.339 1.485-.405 1.687-1.956 1.687-7.152v-32.862c0-2.295.338-2.902.81-2.902.675 0 1.687 1.146 2.295 1.753.945.946 9.582 10.123 18.759 19.57 5.871 6.074 12.215 12.89 14.036 14.778l-.607-28.746c-.067-3.712-.405-4.994-2.226-5.331-1.08-.202-2.43-.271-2.902-.271-.405 0-.473-.337-.473-.539 0-.337.473-.405 1.147-.405 2.7 0 5.533.134 6.209.134.674 0 2.631-.134 5.061-.134.607 0 1.079.068 1.079.405 0 .202-.269.539-.674.539-.271 0-.743 0-1.418.137-1.957.405-2.091 1.551-2.091 4.992l-.135 33.606c0 3.78-.067 4.116-.472 4.116-.607 0-1.216-.473-4.521-3.509-.607-.539-9.178-8.974-15.453-15.519-6.883-7.221-13.563-14.239-15.385-16.263l.673 27.058z" fill="#FFFFFF"/>
        <path d="M259.917 184.017c0 5.533 0 10.054.271 12.417.202 1.685.472 2.765 2.294 3.036.81.134 2.159.271 2.699.271.405 0 .472.268.472.471 0 .271-.269.473-.944.473-3.24 0-7.018-.202-7.356-.202-.269 0-4.386.202-6.14.202-.674 0-.945-.134-.945-.473 0-.202.135-.405.473-.405.539 0 1.214-.134 1.753-.268 1.216-.271 1.552-1.419 1.755-3.104.271-2.363.271-6.884.271-12.417v-24.091l-8.57.137c-3.712.066-5.128.471-6.005 1.822-.675 1.012-.743 1.417-.945 1.822-.135.473-.338.539-.607.539-.135 0-.405-.134-.405-.473 0-.607 1.214-5.736 1.281-6.206.135-.339.405-1.08.607-1.08.405 0 1.012.473 2.632.675 1.686.202 3.981.268 4.655.268h22.403c1.957 0 3.307-.134 4.253-.268.878-.136 1.417-.271 1.687-.271.268 0 .268.337.268.675 0 1.753-.202 5.87-.202 6.545 0 .473-.268.741-.539.741s-.405-.202-.473-1.012l-.066-.607c-.205-1.753-1.486-3.036-7.155-3.17l-7.423-.137v24.09z" fill="#FFFFFF"/>
        <path d="M288.731 195.286c-5.804-4.992-7.221-11.539-7.221-17.004 0-3.846 1.417-10.527 6.679-15.656 3.577-3.441 8.976-6.14 18.087-6.14 2.361 0 5.736.202 8.637.675 2.226.405 4.116.81 6.072.876.607 0 .741.271.741.607 0 .473-.134 1.149-.268 3.241-.068 1.888-.068 5.06-.137 5.87-.066.878-.337 1.214-.673 1.214-.405 0-.473-.405-.473-1.214 0-2.226-.944-4.521-2.497-5.736-2.092-1.753-6.411-3.173-11.673-3.173-7.625 0-11.269 2.026-13.361 3.982-4.387 4.048-5.331 9.176-5.331 14.98 0 11 8.703 20.784 21.391 20.784 4.453 0 7.423-.337 9.784-2.699 1.283-1.28 2.092-3.712 2.295-4.789.134-.607.202-.81.607-.81.271 0 .539.405.539.81s-.81 5.397-1.417 7.355c-.337 1.08-.471 1.283-1.483 1.687-2.431.944-6.884 1.28-10.73 1.28-8.907 0-14.913-2.09-19.568-6.14z" fill="#FFFFFF"/>
        <path d="M337.722 173.895c0-8.906 0-10.527-.134-12.349-.137-1.956-.473-2.902-2.429-3.17a18.98 18.98 0 0 0-2.026-.137c-.202 0-.471-.268-.471-.471 0-.339.268-.473.944-.473 2.699 0 6.545.134 6.884.134.405 0 12.82.068 14.171 0 1.146-.066 2.226-.268 2.699-.337.268-.068.539-.271.81-.271.202 0 .268.271.268.541 0 .405-.337 1.078-.471 2.699-.068.539-.202 3.102-.339 3.777-.066.271-.268.607-.539.607-.337 0-.473-.268-.473-.741 0-.405-.066-1.351-.337-2.024-.405-.946-1.012-1.351-4.25-1.756-1.014-.134-7.896-.202-8.572-.202-.268 0-.337.202-.337.607v15.587c0 .405 0 .607.337.607.744 0 8.572 0 9.92-.134 1.417-.134 2.295-.202 2.902-.81.405-.405.675-.741.878-.741.202 0 .337.134.337.471 0 .339-.337 1.283-.473 3.173-.134 1.146-.268 3.307-.268 3.712 0 .473-.137 1.08-.541 1.08-.268 0-.405-.202-.405-.541 0-.539 0-1.146-.268-1.89-.202-.81-.744-1.483-3.038-1.753-1.619-.202-7.962-.271-8.974-.271-.337 0-.405.202-.405.405v4.792c0 1.958-.068 8.637 0 9.784.134 3.848 1.214 4.589 7.084 4.589 1.553 0 4.387 0 5.94-.607 1.551-.675 2.361-1.687 2.697-3.982.137-.673.271-.876.607-.876.339 0 .407.471.407.876 0 .407-.473 4.319-.812 5.536-.405 1.483-1.012 1.483-3.304 1.483-4.455 0-7.896-.134-10.325-.202-2.497-.134-4.05-.134-4.926-.134-.137 0-1.283 0-2.565.068-1.146.066-2.497.134-3.441.134-.607 0-.946-.134-.946-.473 0-.202.137-.471.473-.471.541 0 1.283-.202 1.822-.271 1.148-.202 1.283-1.351 1.553-3.036.337-2.363.337-6.884.337-12.417v-10.122z" fill="#FFFFFF"/>
        <path d="M376.588 173.895c0-8.906 0-10.527-.134-12.349-.137-1.956-.473-2.902-2.429-3.17a18.98 18.98 0 0 0-2.026-.137c-.202 0-.471-.268-.471-.471 0-.339.268-.473.944-.473 2.7 0 6.411.134 6.884.134 1.28 0 5.736-.134 8.435-.134 7.625 0 10.323 2.363 11.337 3.238 1.349 1.214 2.968 3.78 2.968 6.884 0 8.233-6.209 13.698-15.317 13.698-.339 0-1.351 0-1.687-.068-.271 0-.607-.268-.607-.539 0-.473.337-.607 1.551-.607 6.411 0 11-4.048 11-9.245 0-1.89-.202-5.601-3.375-8.706-3.104-3.104-6.679-2.765-8.03-2.765-1.012 0-2.699.271-3.307.405-.337.068-.471.473-.471 1.08v23.347c0 5.533 0 10.054.268 12.417.202 1.685.541 2.765 2.363 3.036.81.134 2.092.271 2.631.271.337 0 .473.268.473.471 0 .271-.271.473-.946.473-3.238 0-7.152-.202-7.423-.202-.202 0-4.048.202-5.87.202-.607 0-.946-.134-.946-.473 0-.202.137-.471.473-.471.541 0 1.283-.137 1.822-.271 1.149-.271 1.283-1.351 1.553-3.036.337-2.363.337-6.884.337-12.417v-10.122z" fill="#FFFFFF"/>
        <path d="M430.776 184.017c0 5.533 0 10.054.271 12.417.202 1.685.473 2.765 2.295 3.036.81.134 2.158.271 2.699.271.405 0 .471.268.471.471 0 .271-.268.473-.944.473-3.238 0-7.018-.202-7.355-.202-.271 0-4.387.202-6.143.202-.673 0-.944-.134-.944-.473 0-.202.134-.405.473-.405.539 0 1.214-.134 1.753-.268 1.214-.271 1.553-1.419 1.756-3.104.268-2.363.268-6.884.268-12.417v-24.091l-8.569.137c-3.712.066-5.128.471-6.006 1.822-.673 1.012-.741 1.417-.944 1.822-.134.473-.339.539-.607.539-.137 0-.405-.134-.405-.473 0-.607 1.214-5.736 1.283-6.206.134-.339.405-1.08.607-1.08.405 0 1.012.473 2.631.675 1.687.202 3.98.268 4.655.268h22.403c1.958 0 3.307-.134 4.253-.268.876-.136 1.417-.271 1.685-.271.271 0 .271.337.271.675 0 1.753-.202 5.87-.202 6.545 0 .473-.271.741-.539.741-.271 0-.405-.202-.473-1.012l-.068-.607c-.202-1.753-1.485-3.036-7.152-3.17l-7.423-.137v24.09z" fill="#FFFFFF"/>
        <path d="M454.932 199.875c-.81-.405-.876-.607-.876-2.161 0-2.834.268-5.128.337-6.072 0-.607.134-.944.473-.944.337 0 .539.202.539.673 0 .473 0 1.283.202 2.092.946 4.185 5.399 5.67 9.381 5.67 5.87 0 8.906-3.307 8.906-7.625 0-4.116-2.226-6.074-7.489-9.988l-2.699-2.024c-6.411-4.792-8.503-8.301-8.503-12.281 0-6.748 5.331-10.798 13.159-10.798 2.363 0 4.724.339 6.14.675 1.149.271 1.619.271 2.092.271s.607.066.607.405c0 .268-.271 2.158-.271 6.072 0 .878-.066 1.283-.471 1.283s-.473-.271-.541-.741c-.066-.675-.539-2.229-.876-2.836-.405-.673-2.363-2.834-7.694-2.834-4.319 0-7.896 2.161-7.896 6.209 0 3.643 1.824 5.736 7.694 9.718l1.687 1.146c7.221 4.926 9.718 8.908 9.718 13.834 0 3.373-1.283 7.018-5.535 9.784-2.495 1.619-6.206 2.024-9.447 2.024-2.765-.001-6.206-.406-8.637-1.552z" fill="#FFFFFF"/>
    </g>
</svg>
